<mxfile host="app.diagrams.net" modified="2023-11-09T11:59:25.789Z" agent="Mozilla/5.0 (X11; Linux x86_64) AppleWebKit/537.36 (KHTML, like Gecko) Chrome/116.0.0.0 Safari/537.36" etag="hre3dNYPXaiQR7U12DrG" version="22.1.0" type="device">
  <diagram name="Page-1" id="CQDNQA6on7anbzvFa53I">
    <mxGraphModel dx="201063" dy="725" grid="1" gridSize="10" guides="1" tooltips="1" connect="1" arrows="1" fold="1" page="1" pageScale="1" pageWidth="200000" pageHeight="200000" math="0" shadow="0">
      <root>
        <mxCell id="0" />
        <mxCell id="1" parent="0" />
        <mxCell id="PREK7sUgV4l5LeMdO8-A-28" style="rounded=0;orthogonalLoop=1;jettySize=auto;html=1;exitX=1;exitY=0.5;exitDx=0;exitDy=0;entryX=0;entryY=0;entryDx=0;entryDy=0;" edge="1" parent="1" source="PREK7sUgV4l5LeMdO8-A-7" target="PREK7sUgV4l5LeMdO8-A-9">
          <mxGeometry relative="1" as="geometry" />
        </mxCell>
        <mxCell id="PREK7sUgV4l5LeMdO8-A-29" style="rounded=0;orthogonalLoop=1;jettySize=auto;html=1;exitX=1;exitY=1;exitDx=0;exitDy=0;entryX=1;entryY=0;entryDx=0;entryDy=0;" edge="1" parent="1" source="PREK7sUgV4l5LeMdO8-A-7" target="PREK7sUgV4l5LeMdO8-A-8">
          <mxGeometry relative="1" as="geometry" />
        </mxCell>
        <mxCell id="PREK7sUgV4l5LeMdO8-A-7" value="kind: namespace&lt;br&gt;id: parent" style="rounded=1;whiteSpace=wrap;html=1;" vertex="1" parent="1">
          <mxGeometry x="380" y="570" width="120" height="60" as="geometry" />
        </mxCell>
        <mxCell id="PREK7sUgV4l5LeMdO8-A-27" style="rounded=0;orthogonalLoop=1;jettySize=auto;html=1;exitX=0.75;exitY=1;exitDx=0;exitDy=0;entryX=0.5;entryY=0;entryDx=0;entryDy=0;" edge="1" parent="1" source="PREK7sUgV4l5LeMdO8-A-8" target="PREK7sUgV4l5LeMdO8-A-15">
          <mxGeometry relative="1" as="geometry" />
        </mxCell>
        <mxCell id="PREK7sUgV4l5LeMdO8-A-8" value="kind: namespace&lt;br&gt;id: child" style="rounded=1;whiteSpace=wrap;html=1;" vertex="1" parent="1">
          <mxGeometry x="385" y="710" width="120" height="60" as="geometry" />
        </mxCell>
        <mxCell id="PREK7sUgV4l5LeMdO8-A-9" value="kind: config&lt;br&gt;id: org1/config1/v1" style="rounded=1;whiteSpace=wrap;html=1;" vertex="1" parent="1">
          <mxGeometry x="570" y="630" width="120" height="60" as="geometry" />
        </mxCell>
        <mxCell id="PREK7sUgV4l5LeMdO8-A-11" value="kind: config&lt;br&gt;id: org1/config1/v2" style="rounded=1;whiteSpace=wrap;html=1;" vertex="1" parent="1">
          <mxGeometry x="310" y="830" width="120" height="60" as="geometry" />
        </mxCell>
        <mxCell id="PREK7sUgV4l5LeMdO8-A-30" style="rounded=0;orthogonalLoop=1;jettySize=auto;html=1;entryX=0;entryY=0.5;entryDx=0;entryDy=0;strokeColor=#006633;" edge="1" parent="1" source="PREK7sUgV4l5LeMdO8-A-12" target="PREK7sUgV4l5LeMdO8-A-8">
          <mxGeometry relative="1" as="geometry" />
        </mxCell>
        <mxCell id="PREK7sUgV4l5LeMdO8-A-12" value="kind: user&lt;br&gt;id: 1" style="rounded=1;whiteSpace=wrap;html=1;" vertex="1" parent="1">
          <mxGeometry x="120" y="690" width="120" height="60" as="geometry" />
        </mxCell>
        <mxCell id="PREK7sUgV4l5LeMdO8-A-13" value="kind: user&lt;br&gt;id: 2" style="rounded=1;whiteSpace=wrap;html=1;" vertex="1" parent="1">
          <mxGeometry x="-40" y="690" width="120" height="60" as="geometry" />
        </mxCell>
        <mxCell id="PREK7sUgV4l5LeMdO8-A-16" style="edgeStyle=orthogonalEdgeStyle;rounded=0;orthogonalLoop=1;jettySize=auto;html=1;exitX=1;exitY=0.5;exitDx=0;exitDy=0;entryX=0;entryY=0.5;entryDx=0;entryDy=0;strokeColor=#006633;" edge="1" parent="1" source="PREK7sUgV4l5LeMdO8-A-14" target="PREK7sUgV4l5LeMdO8-A-7">
          <mxGeometry relative="1" as="geometry" />
        </mxCell>
        <mxCell id="PREK7sUgV4l5LeMdO8-A-24" style="rounded=0;orthogonalLoop=1;jettySize=auto;html=1;exitX=0;exitY=0.5;exitDx=0;exitDy=0;" edge="1" parent="1" source="PREK7sUgV4l5LeMdO8-A-14" target="PREK7sUgV4l5LeMdO8-A-13">
          <mxGeometry relative="1" as="geometry" />
        </mxCell>
        <mxCell id="PREK7sUgV4l5LeMdO8-A-25" style="edgeStyle=orthogonalEdgeStyle;rounded=0;orthogonalLoop=1;jettySize=auto;html=1;exitX=0.5;exitY=1;exitDx=0;exitDy=0;" edge="1" parent="1" source="PREK7sUgV4l5LeMdO8-A-14" target="PREK7sUgV4l5LeMdO8-A-12">
          <mxGeometry relative="1" as="geometry" />
        </mxCell>
        <mxCell id="PREK7sUgV4l5LeMdO8-A-14" value="kind: user-group&lt;br&gt;id: 1" style="rounded=1;whiteSpace=wrap;html=1;" vertex="1" parent="1">
          <mxGeometry x="120" y="570" width="120" height="60" as="geometry" />
        </mxCell>
        <mxCell id="PREK7sUgV4l5LeMdO8-A-15" value="kind: app&lt;br&gt;id: my-app" style="rounded=1;whiteSpace=wrap;html=1;" vertex="1" parent="1">
          <mxGeometry x="460" y="830" width="120" height="60" as="geometry" />
        </mxCell>
        <mxCell id="PREK7sUgV4l5LeMdO8-A-17" value="&lt;font&gt;allow config.get&lt;/font&gt;" style="text;html=1;align=center;verticalAlign=middle;resizable=0;points=[];autosize=1;strokeColor=none;fillColor=none;fontColor=#006633;" vertex="1" parent="1">
          <mxGeometry x="250" y="570" width="110" height="30" as="geometry" />
        </mxCell>
        <mxCell id="PREK7sUgV4l5LeMdO8-A-18" style="edgeStyle=orthogonalEdgeStyle;rounded=0;orthogonalLoop=1;jettySize=auto;html=1;exitX=0.25;exitY=0;exitDx=0;exitDy=0;entryX=0.659;entryY=-0.05;entryDx=0;entryDy=0;entryPerimeter=0;strokeColor=#006633;" edge="1" parent="1" source="PREK7sUgV4l5LeMdO8-A-7" target="PREK7sUgV4l5LeMdO8-A-7">
          <mxGeometry relative="1" as="geometry">
            <Array as="points">
              <mxPoint x="410" y="550" />
              <mxPoint x="459" y="550" />
            </Array>
          </mxGeometry>
        </mxCell>
        <mxCell id="PREK7sUgV4l5LeMdO8-A-19" value="&lt;font&gt;allow config.get&lt;/font&gt;" style="text;html=1;align=center;verticalAlign=middle;resizable=0;points=[];autosize=1;strokeColor=none;fillColor=none;fontColor=#006633;" vertex="1" parent="1">
          <mxGeometry x="385" y="520" width="110" height="30" as="geometry" />
        </mxCell>
        <mxCell id="PREK7sUgV4l5LeMdO8-A-20" style="edgeStyle=orthogonalEdgeStyle;rounded=0;orthogonalLoop=1;jettySize=auto;html=1;exitX=0.25;exitY=0;exitDx=0;exitDy=0;entryX=0.659;entryY=-0.05;entryDx=0;entryDy=0;entryPerimeter=0;strokeColor=#006633;" edge="1" parent="1">
          <mxGeometry relative="1" as="geometry">
            <mxPoint x="420" y="710" as="sourcePoint" />
            <mxPoint x="469" y="707" as="targetPoint" />
            <Array as="points">
              <mxPoint x="420" y="690" />
              <mxPoint x="469" y="690" />
            </Array>
          </mxGeometry>
        </mxCell>
        <mxCell id="PREK7sUgV4l5LeMdO8-A-21" value="&lt;font&gt;allow config.get&lt;/font&gt;" style="text;html=1;align=center;verticalAlign=middle;resizable=0;points=[];autosize=1;strokeColor=none;fillColor=none;fontColor=#006633;" vertex="1" parent="1">
          <mxGeometry x="395" y="660" width="110" height="30" as="geometry" />
        </mxCell>
        <mxCell id="PREK7sUgV4l5LeMdO8-A-22" style="edgeStyle=orthogonalEdgeStyle;rounded=0;orthogonalLoop=1;jettySize=auto;html=1;exitX=0;exitY=0;exitDx=0;exitDy=0;entryX=0.08;entryY=1.049;entryDx=0;entryDy=0;entryPerimeter=0;strokeColor=#990000;" edge="1" parent="1" source="PREK7sUgV4l5LeMdO8-A-8" target="PREK7sUgV4l5LeMdO8-A-7">
          <mxGeometry relative="1" as="geometry">
            <Array as="points">
              <mxPoint x="390" y="710" />
            </Array>
          </mxGeometry>
        </mxCell>
        <mxCell id="PREK7sUgV4l5LeMdO8-A-23" value="&lt;font color=&quot;#990000&quot;&gt;deny config.get&lt;/font&gt;" style="text;html=1;align=center;verticalAlign=middle;resizable=0;points=[];autosize=1;strokeColor=none;fillColor=none;fontColor=#006633;" vertex="1" parent="1">
          <mxGeometry x="290" y="660" width="100" height="30" as="geometry" />
        </mxCell>
        <mxCell id="PREK7sUgV4l5LeMdO8-A-26" style="rounded=0;orthogonalLoop=1;jettySize=auto;html=1;exitX=0.25;exitY=1;exitDx=0;exitDy=0;entryX=0.428;entryY=-0.027;entryDx=0;entryDy=0;entryPerimeter=0;" edge="1" parent="1" source="PREK7sUgV4l5LeMdO8-A-8" target="PREK7sUgV4l5LeMdO8-A-11">
          <mxGeometry relative="1" as="geometry" />
        </mxCell>
        <mxCell id="PREK7sUgV4l5LeMdO8-A-31" value="&lt;font&gt;allow config.put&lt;/font&gt;" style="text;html=1;align=center;verticalAlign=middle;resizable=0;points=[];autosize=1;strokeColor=none;fillColor=none;fontColor=#006633;rotation=5;" vertex="1" parent="1">
          <mxGeometry x="250" y="730" width="110" height="30" as="geometry" />
        </mxCell>
      </root>
    </mxGraphModel>
  </diagram>
</mxfile>
